<svg width="38" height="39" viewBox="0 0 38 39" fill="none" xmlns="http://www.w3.org/2000/svg">
<g id="fluent:delete-20-regular">
<path id="Vector" d="M16.1498 8.09998H21.8498C21.8498 7.34411 21.5495 6.6192 21.0151 6.08472C20.4806 5.55024 19.7557 5.24998 18.9998 5.24998C18.2439 5.24998 17.519 5.55024 16.9845 6.08472C16.4501 6.6192 16.1498 7.34411 16.1498 8.09998ZM14.2498 8.09998C14.2498 6.8402 14.7502 5.63202 15.641 4.74122C16.5318 3.85042 17.74 3.34998 18.9998 3.34998C20.2596 3.34998 21.4678 3.85042 22.3586 4.74122C23.2494 5.63202 23.7498 6.8402 23.7498 8.09998H33.2498C33.5018 8.09998 33.7434 8.20007 33.9216 8.37822C34.0997 8.55638 34.1998 8.79802 34.1998 9.04998C34.1998 9.30193 34.0997 9.54357 33.9216 9.72173C33.7434 9.89989 33.5018 9.99998 33.2498 9.99998H31.2472L28.9786 29.6536C28.8182 31.0428 28.1527 32.3247 27.1087 33.2552C26.0647 34.1857 24.7151 34.6999 23.3166 34.7H14.683C13.2845 34.6999 11.9349 34.1857 10.8909 33.2552C9.84686 32.3247 9.18136 31.0428 9.021 29.6536L6.7524 9.99998H4.7498C4.49785 9.99998 4.25621 9.89989 4.07805 9.72173C3.89989 9.54357 3.7998 9.30193 3.7998 9.04998C3.7998 8.79802 3.89989 8.55638 4.07805 8.37822C4.25621 8.20007 4.49785 8.09998 4.7498 8.09998H14.2498ZM10.9077 29.437C11.0149 30.363 11.4588 31.2174 12.1549 31.8375C12.851 32.4575 13.7508 32.8001 14.683 32.8H23.3166C24.2488 32.8001 25.1486 32.4575 25.8447 31.8375C26.5408 31.2174 26.9847 30.363 27.0919 29.437L29.3339 9.99998H8.6657L10.9077 29.437ZM16.1498 14.75C16.4018 14.75 16.6434 14.8501 16.8216 15.0282C16.9997 15.2064 17.0998 15.448 17.0998 15.7V27.1C17.0998 27.3519 16.9997 27.5936 16.8216 27.7717C16.6434 27.9499 16.4018 28.05 16.1498 28.05C15.8978 28.05 15.6562 27.9499 15.4781 27.7717C15.2999 27.5936 15.1998 27.3519 15.1998 27.1V15.7C15.1998 15.448 15.2999 15.2064 15.4781 15.0282C15.6562 14.8501 15.8978 14.75 16.1498 14.75ZM22.7998 15.7C22.7998 15.448 22.6997 15.2064 22.5216 15.0282C22.3434 14.8501 22.1018 14.75 21.8498 14.75C21.5978 14.75 21.3562 14.8501 21.1781 15.0282C20.9999 15.2064 20.8998 15.448 20.8998 15.7V27.1C20.8998 27.3519 20.9999 27.5936 21.1781 27.7717C21.3562 27.9499 21.5978 28.05 21.8498 28.05C22.1018 28.05 22.3434 27.9499 22.5216 27.7717C22.6997 27.5936 22.7998 27.3519 22.7998 27.1V15.7Z" fill="black"/>
</g>
</svg>
