<svg width="43" height="43" viewBox="0 0 43 43" fill="none" xmlns="http://www.w3.org/2000/svg">
<path id="Vector" d="M10.75 16.125C10.3265 16.125 9.90712 16.2084 9.51585 16.3705C9.12457 16.5326 8.76905 16.7701 8.46958 17.0696C8.17011 17.369 7.93256 17.7246 7.77049 18.1158C7.60842 18.5071 7.525 18.9265 7.525 19.35C7.525 19.7735 7.60842 20.1929 7.77049 20.5842C7.93256 20.9754 8.17011 21.331 8.46958 21.6304C8.76905 21.9299 9.12457 22.1674 9.51585 22.3295C9.90712 22.4916 10.3265 22.575 10.75 22.575C11.6053 22.575 12.4256 22.2352 13.0304 21.6304C13.6352 21.0256 13.975 20.2053 13.975 19.35C13.975 18.4947 13.6352 17.6744 13.0304 17.0696C12.4256 16.4648 11.6053 16.125 10.75 16.125ZM10.75 20.425C10.4649 20.425 10.1915 20.3117 9.98986 20.1101C9.78826 19.9085 9.675 19.6351 9.675 19.35C9.675 19.0649 9.78826 18.7915 9.98986 18.5899C10.1915 18.3883 10.4649 18.275 10.75 18.275C11.0351 18.275 11.3085 18.3883 11.5101 18.5899C11.7117 18.7915 11.825 19.0649 11.825 19.35C11.825 19.6351 11.7117 19.9085 11.5101 20.1101C11.3085 20.3117 11.0351 20.425 10.75 20.425ZM37.625 8.6H34.4V1.075C34.4 0.789892 34.2867 0.516462 34.0851 0.31486C33.8835 0.113259 33.6101 0 33.325 0H9.675C9.38989 0 9.11646 0.113259 8.91486 0.31486C8.71326 0.516462 8.6 0.789892 8.6 1.075V8.6H5.375C3.94981 8.60114 2.58332 9.1678 1.57556 10.1756C0.567798 11.1833 0.00113879 12.5498 0 13.975V27.95C0.00170756 29.6601 0.681808 31.2997 1.89105 32.509C3.10029 33.7182 4.73988 34.3983 6.45 34.4H8.6V41.925C8.6 42.2101 8.71326 42.4835 8.91486 42.6851C9.11646 42.8867 9.38989 43 9.675 43H33.325C33.6101 43 33.8835 42.8867 34.0851 42.6851C34.2867 42.4835 34.4 42.2101 34.4 41.925V34.4H36.55C38.2601 34.3983 39.8997 33.7182 41.109 32.509C42.3182 31.2997 42.9983 29.6601 43 27.95V13.975C42.9989 12.5498 42.4322 11.1833 41.4244 10.1756C40.4167 9.1678 39.0502 8.60114 37.625 8.6ZM10.75 2.15H32.25V8.6H10.75V2.15ZM32.25 40.85H10.75V27.95H32.25V40.85ZM40.85 27.95C40.8483 29.0899 40.3947 30.1826 39.5887 30.9887C38.7826 31.7947 37.6899 32.2483 36.55 32.25H34.4V26.875C34.4 26.5899 34.2867 26.3165 34.0851 26.1149C33.8835 25.9133 33.6101 25.8 33.325 25.8H9.675C9.38989 25.8 9.11646 25.9133 8.91486 26.1149C8.71326 26.3165 8.6 26.5899 8.6 26.875V32.25H6.45C5.31009 32.2483 4.21736 31.7947 3.41133 30.9887C2.60529 30.1826 2.15171 29.0899 2.15 27.95V13.975C2.15 13.1197 2.48978 12.2994 3.09458 11.6946C3.69939 11.0898 4.51968 10.75 5.375 10.75H37.625C38.4803 10.75 39.3006 11.0898 39.9054 11.6946C40.5102 12.2994 40.85 13.1197 40.85 13.975V27.95Z" fill="black"/>
</svg>
