<svg width="10" height="10" viewBox="0 0 100 100" fill="none" xmlns="http://www.w3.org/2000/svg">
<path id="Vector" d="M5.40166 9.39C6.28116 9.39687 7.14289 9.14232 7.87751 8.65864C8.61213 8.17497 9.18655 7.48396 9.52789 6.67329C9.86924 5.86261 9.96212 4.9688 9.79475 4.10526C9.62739 3.24171 9.20733 2.44734 8.58785 1.82292C7.96838 1.1985 7.17741 0.772168 6.31529 0.59802C5.45317 0.423871 4.55876 0.509751 3.74552 0.844761C2.93228 1.17977 2.23687 1.74881 1.7475 2.4797C1.25813 3.21059 0.996853 4.07038 0.996826 4.95C0.99679 6.12157 1.45976 7.24568 2.28485 8.07735C3.10993 8.90902 4.23025 9.38085 5.40166 9.39Z" fill="#D3D3D3"/>
</svg>
