<svg width="87" height="87" viewBox="0 0 87 87" fill="none" xmlns="http://www.w3.org/2000/svg">
<g id="OBJECTS">
<path id="Vector" d="M31.4436 63.5499L32.1992 64.0006C37.2352 66.9761 43.1896 67.9954 48.9286 66.8645C54.6675 65.7335 59.7901 62.5313 63.3206 57.8676C66.8512 53.204 68.5431 47.4046 68.0742 41.5741C67.6053 35.7436 65.0083 30.2893 60.7778 26.2498C56.5472 22.2103 50.9788 19.8679 45.1329 19.6686C39.2869 19.4694 33.5719 21.4273 29.0762 25.1694C24.5805 28.9115 21.6182 34.1764 20.7534 39.9614C19.8886 45.7465 21.1818 51.6475 24.3866 56.5407L24.8635 57.268L21.8369 67.0773L31.4436 63.5499Z" stroke="#3F3F3F" stroke-width="5" stroke-linecap="round" stroke-linejoin="round"/>
<path id="Vector_2" d="M34.283 29.7039C33.7517 29.8846 33.3053 30.2025 32.6434 30.8906C31.1823 32.4148 30.4943 34.0174 30.4006 36.1643C30.2896 38.6313 31.252 41.3531 33.4251 44.7129C37.0592 50.3219 40.7107 53.6141 45.538 55.6239C48.0116 56.6538 49.6272 57.1873 50.692 57.3419C51.4911 57.4442 53.0719 57.2134 54.0518 56.8345C55.0437 56.4217 55.9498 55.8273 56.7234 55.0817C57.5639 54.1541 58.2955 52.0921 58.2955 50.6245C58.2955 50.0127 58.2781 49.9365 58.0626 49.6948C57.6271 49.2158 52.1835 46.372 51.5303 46.2849C50.9446 46.2087 50.7138 46.372 49.7514 47.4956C48.2576 49.2375 47.7917 49.6948 47.526 49.6948C47.2168 49.6948 45.1461 48.6562 44.1597 48.0029C41.745 46.4047 39.7352 44.2142 38.1631 41.4315C38.065 41.2787 37.9867 41.1141 37.9301 40.9416C38.1031 40.6667 38.3077 40.4131 38.5398 40.186C39.3476 39.302 39.6155 38.897 39.9573 38.063C40.3536 37.1267 40.3362 36.8785 39.8114 35.4501C39.0559 33.3881 38.8164 32.7436 38.4026 31.6353C37.9672 30.4834 37.6471 29.9783 37.2094 29.7975C36.7718 29.6168 34.7054 29.5667 34.283 29.7039Z" fill="#3F3F3F"/>
<path id="Vector_3" d="M68.8974 3H18.1026C9.76166 3 3 9.76166 3 18.1026V68.8974C3 77.2383 9.76166 84 18.1026 84H68.8974C77.2383 84 84 77.2383 84 68.8974V18.1026C84 9.76166 77.2383 3 68.8974 3Z" stroke="black" stroke-width="5" stroke-linecap="round" stroke-linejoin="round"/>
</g>
</svg>
