<svg width="92" height="93" viewBox="0 0 92 93" fill="none" xmlns="http://www.w3.org/2000/svg">
<g id="bi:save" clip-path="url(#clip0_20_918)">
<path id="Vector" d="M11.5 6.25C9.97501 6.25 8.51247 6.8558 7.43414 7.93414C6.3558 9.01247 5.75 10.475 5.75 12V81C5.75 82.525 6.3558 83.9875 7.43414 85.0659C8.51247 86.1442 9.97501 86.75 11.5 86.75H80.5C82.025 86.75 83.4875 86.1442 84.5659 85.0659C85.6442 83.9875 86.25 82.525 86.25 81V12C86.25 10.475 85.6442 9.01247 84.5659 7.93414C83.4875 6.8558 82.025 6.25 80.5 6.25H54.625C53.1 6.25 51.6375 6.8558 50.5591 7.93414C49.4808 9.01247 48.875 10.475 48.875 12V53.9347L64.0895 38.7145C64.6293 38.1747 65.3615 37.8714 66.125 37.8714C66.8885 37.8714 67.6207 38.1747 68.1605 38.7145C68.7003 39.2543 69.0036 39.9865 69.0036 40.75C69.0036 41.5135 68.7003 42.2457 68.1605 42.7855L48.0355 62.9105C47.7684 63.1782 47.4512 63.3907 47.1019 63.5356C46.7526 63.6805 46.3782 63.7551 46 63.7551C45.6218 63.7551 45.2474 63.6805 44.8981 63.5356C44.5488 63.3907 44.2316 63.1782 43.9645 62.9105L23.8395 42.7855C23.5722 42.5182 23.3602 42.2009 23.2155 41.8516C23.0708 41.5024 22.9964 41.128 22.9964 40.75C22.9964 40.372 23.0708 39.9976 23.2155 39.6484C23.3602 39.2991 23.5722 38.9818 23.8395 38.7145C24.1068 38.4472 24.4241 38.2352 24.7734 38.0905C25.1226 37.9458 25.497 37.8714 25.875 37.8714C26.253 37.8714 26.6274 37.9458 26.9766 38.0905C27.3259 38.2352 27.6432 38.4472 27.9105 38.7145L43.125 53.9347V12C43.125 8.95001 44.3366 6.02494 46.4933 3.86827C48.6499 1.7116 51.575 0.5 54.625 0.5L80.5 0.5C83.55 0.5 86.4751 1.7116 88.6317 3.86827C90.7884 6.02494 92 8.95001 92 12V81C92 84.05 90.7884 86.9751 88.6317 89.1317C86.4751 91.2884 83.55 92.5 80.5 92.5H11.5C8.45001 92.5 5.52494 91.2884 3.36827 89.1317C1.2116 86.9751 0 84.05 0 81V12C0 8.95001 1.2116 6.02494 3.36827 3.86827C5.52494 1.7116 8.45001 0.5 11.5 0.5L25.875 0.5C26.6375 0.5 27.3688 0.802901 27.9079 1.34207C28.4471 1.88124 28.75 2.6125 28.75 3.375C28.75 4.1375 28.4471 4.86876 27.9079 5.40793C27.3688 5.9471 26.6375 6.25 25.875 6.25H11.5Z" fill="white"/>
</g>
<defs>
<clipPath id="clip0_20_918">
<rect width="92" height="92" fill="white" transform="translate(0 0.5)"/>
</clipPath>
</defs>
</svg>
