<svg width="46" height="46" viewBox="0 0 46 46" fill="none" xmlns="http://www.w3.org/2000/svg">
<g id="circum:search">
<path id="Vector" d="M38.3924 39.8475C39.2741 40.7292 40.6349 39.3683 39.7532 38.5058L32.5657 31.2992C35.087 28.5095 36.4806 24.8818 36.4757 21.1217C36.4757 12.7075 29.6332 5.86499 21.2191 5.86499C12.8049 5.86499 5.9624 12.7075 5.9624 21.1217C5.9624 29.5358 12.8049 36.3783 21.2191 36.3783C25.0141 36.3783 28.5216 34.9792 31.2049 32.66L38.3924 39.8475ZM7.87715 21.1217C7.87715 13.7617 13.8763 7.78166 21.2172 7.78166C28.5772 7.78166 34.5572 13.7617 34.5572 21.1217C34.5572 28.4817 28.5772 34.4617 21.2172 34.4617C13.8763 34.4617 7.87715 28.4817 7.87715 21.1217Z" fill="#FFF5EC"/>
</g>
</svg>
