<svg width="57" height="57" viewBox="0 0 57 57" fill="none" xmlns="http://www.w3.org/2000/svg">
<g id="fluent:next-28-regular">
<path id="Vector" d="M47.8391 7.63396C47.8391 7.22903 47.9999 6.84069 48.2863 6.55436C48.5726 6.26804 48.9609 6.10718 49.3659 6.10718C49.7708 6.10718 50.1591 6.26804 50.4455 6.55436C50.7318 6.84069 50.8926 7.22903 50.8926 7.63396V49.3661C50.8926 49.771 50.7318 50.1594 50.4455 50.4457C50.1591 50.732 49.7708 50.8929 49.3659 50.8929C48.9609 50.8929 48.5726 50.732 48.2863 50.4457C47.9999 50.1594 47.8391 49.771 47.8391 49.3661V7.63396ZM6.10693 10.6957C6.10693 6.99882 10.2618 4.82468 13.2991 6.93368L38.7537 24.6037C39.3591 25.0238 39.8542 25.5838 40.197 26.2361C40.5398 26.8884 40.7201 27.6138 40.7227 28.3506C40.7253 29.0875 40.5501 29.8142 40.2119 30.4689C39.8737 31.1236 39.3826 31.687 38.7801 32.1114L13.3256 50.046C10.2924 52.1835 6.10693 50.0175 6.10693 46.3024V10.6957ZM11.5586 9.44168C11.3296 9.28254 11.0614 9.18915 10.783 9.17167C10.5047 9.15418 10.2269 9.21325 9.9798 9.34248C9.73267 9.4717 9.52566 9.66614 9.38123 9.9047C9.2368 10.1433 9.16046 10.4168 9.1605 10.6957V46.3024C9.16054 46.582 9.23739 46.8563 9.38268 47.0953C9.52797 47.3343 9.73611 47.5288 9.98438 47.6575C10.2327 47.7863 10.5115 47.8444 10.7906 47.8255C11.0696 47.8065 11.3381 47.7113 11.5667 47.5502L37.0213 29.6156C37.2224 29.4742 37.3864 29.2864 37.4994 29.0681C37.6124 28.8497 37.6709 28.6073 37.6701 28.3615C37.6693 28.1157 37.6092 27.8737 37.4948 27.6561C37.3804 27.4385 37.2152 27.2517 37.0131 27.1117L11.5586 9.44168Z" fill="#261A5A"/>
</g>
</svg>
