<svg width="121" height="121" viewBox="0 0 121 121" fill="none" xmlns="http://www.w3.org/2000/svg">
<g id="OBJECTS" filter="url(#filter0_d_19_820)">
<path id="Vector" d="M35.1009 16H85.897C89.9026 16 93.7441 17.5912 96.5764 20.4237C99.4088 23.2561 101 27.0977 101 31.1034V81.8987C101 85.9038 99.409 89.7449 96.5771 92.5769C93.7451 95.409 89.9041 97 85.8991 97H35.1009C31.096 96.9994 27.2554 95.4082 24.4236 92.5763C21.5917 89.7444 20.0006 85.9037 20 81.8987V31.1034C19.9997 29.1201 20.3901 27.1561 21.1489 25.3237C21.9076 23.4913 23.0199 21.8263 24.4222 20.4238C25.8245 19.0213 27.4893 17.9088 29.3215 17.1497C31.1538 16.3907 33.1176 16 35.1009 16Z" fill="#FD043C"/>
<path id="Vector_2" d="M34.9832 44.7599C35.4311 42.4274 35.8476 40.0865 37.12 38.0127C40.0182 33.2804 44.5527 31.4653 49.7791 31.337C56.9061 31.1617 64.0373 31.1617 71.1727 31.337C76.01 31.4527 80.3194 33.047 83.266 37.2429C85.1589 39.9414 85.8697 43.0352 85.9181 46.2301C86.0233 53.0803 86.0695 59.9369 85.9181 66.7871C85.7919 72.3039 83.8738 77.011 78.7105 79.8146C76.3255 81.1102 73.7091 81.6718 71.0402 81.7075C64.0029 81.7874 56.9593 81.8569 49.9242 81.697C44.6452 81.5771 40.0602 79.7936 37.1263 75.0129C35.8539 72.9391 35.4438 70.5961 34.9895 68.2657L34.9832 44.7599ZM60.5179 36.1745C57.0224 36.1745 53.5248 36.1093 50.0293 36.1913C44.5611 36.3196 41.2128 38.8771 40.2201 43.5779C39.9931 44.5778 39.8677 45.5982 39.8457 46.6234C39.8142 53.2444 39.7258 59.8738 39.8604 66.4822C39.995 73.0905 43.3244 76.5903 49.676 76.8238C56.85 77.0867 64.0345 77.0636 71.2105 76.8238C76.5021 76.6471 79.6464 74.1001 80.658 69.5277C80.8628 68.7136 80.9819 67.8804 81.0135 67.0416C81.0513 59.4952 81.4657 51.9404 80.7842 44.4066C80.3825 39.9456 77.3918 37.0305 72.9457 36.4142C68.815 35.8485 64.6591 36.2523 60.5179 36.1745Z" fill="#E4E9E9"/>
<path id="Vector_3" d="M73.667 56.599C73.646 63.7101 67.7445 69.5529 60.499 69.6391C53.2535 69.7254 47.2027 63.7269 47.2237 56.4287C47.2447 49.2524 53.3692 43.2498 60.5305 43.3886C67.8791 43.5358 73.6881 49.3681 73.667 56.599ZM68.7645 56.5338C68.7645 52.0077 65.0461 48.2997 60.4653 48.2765C55.8846 48.2534 52.1346 51.9782 52.1262 56.4918C52.1178 61.0053 55.8446 64.726 60.4254 64.7491C64.9746 64.7785 68.7582 61.0474 68.7645 56.5338Z" fill="#E4E9E9"/>
<path id="Vector_4" d="M74.0267 39.9327C74.8722 39.9254 75.6863 40.2532 76.2908 40.8444C76.8954 41.4356 77.2413 42.2421 77.253 43.0876C77.253 44.745 75.8228 46.1646 74.1234 46.213C73.2778 46.2319 72.4587 45.9177 71.8425 45.3381C71.2264 44.7586 70.8627 43.9602 70.8298 43.1149C70.8287 42.6955 70.9108 42.28 71.0712 41.8924C71.2316 41.5049 71.4673 41.153 71.7646 40.8571C72.0619 40.5611 72.4148 40.3271 72.8031 40.1684C73.1914 40.0098 73.6073 39.9297 74.0267 39.9327Z" fill="#E4E9E9"/>
</g>
<defs>
<filter id="filter0_d_19_820" x="0" y="0" width="121" height="121" filterUnits="userSpaceOnUse" color-interpolation-filters="sRGB">
<feFlood flood-opacity="0" result="BackgroundImageFix"/>
<feColorMatrix in="SourceAlpha" type="matrix" values="0 0 0 0 0 0 0 0 0 0 0 0 0 0 0 0 0 0 127 0" result="hardAlpha"/>
<feOffset dy="4"/>
<feGaussianBlur stdDeviation="10"/>
<feComposite in2="hardAlpha" operator="out"/>
<feColorMatrix type="matrix" values="0 0 0 0 0 0 0 0 0 0 0 0 0 0 0 0 0 0 0.25 0"/>
<feBlend mode="normal" in2="BackgroundImageFix" result="effect1_dropShadow_19_820"/>
<feBlend mode="normal" in="SourceGraphic" in2="effect1_dropShadow_19_820" result="shape"/>
</filter>
</defs>
</svg>
