<svg width="87" height="87" viewBox="0 0 87 87" fill="none" xmlns="http://www.w3.org/2000/svg">
<g id="OBJECTS">
<path id="Vector" d="M64.0547 33.7493C63.1222 26.5618 58.8512 21.7298 52.1785 19.073C47.0608 17.0342 41.8177 17.1684 36.5877 18.6705C32.9044 19.6837 29.6166 21.794 27.1616 24.7209C24.5796 27.8 23.1743 31.3674 22.796 35.357C22.3869 39.6458 23.4184 43.543 25.9366 47.04C26.7421 48.1734 27.8029 49.1016 29.0332 49.7496C29.8711 50.1895 30.0976 50.0839 30.322 49.1756C30.5419 48.3288 30.6936 47.4667 30.9642 46.6397C31.2347 45.8127 31.2105 45.0804 30.5705 44.4052C30.3294 44.1076 30.1303 43.7783 29.9789 43.4264C27.0384 37.7389 28.5911 30.3381 33.7331 26.3705C38.4967 22.6975 43.8256 22.1631 49.3481 24.3361C53.155 25.8316 55.638 28.7348 56.5793 32.7068C57.723 37.5454 57.0852 42.2454 54.6 46.5869C52.9527 49.4725 50.5313 51.3749 47.0608 51.5817C44.4898 51.7356 42.1454 50.1785 41.7011 47.581C41.5406 46.6331 41.7143 45.7138 41.976 44.8098C42.6358 42.5203 43.3242 40.2396 43.9752 37.9479C44.3563 36.7037 44.5207 35.4033 44.4612 34.1034C44.2897 31.363 42.0838 29.6893 39.4138 30.3205C37.573 30.7604 36.3788 31.9986 35.5959 33.6393C34.2367 36.4985 34.3709 39.4104 35.3759 42.329C35.5242 42.7249 35.5502 43.1563 35.4507 43.5672C34.4874 47.6008 33.6231 51.663 32.5542 55.6637C31.5206 59.5367 31.0587 63.4318 31.5404 67.4104C31.6451 67.9821 31.7921 68.5452 31.9802 69.0951L33.6715 69.4536C33.7221 69.3898 33.9684 68.9368 34.2103 68.4639C36.0819 64.7888 37.584 62.121 38.356 58.5668C38.7211 56.8843 39.2159 55.2304 39.6602 53.5655C39.7085 53.3917 39.6822 53.1256 39.8933 53.075C40.1044 53.0244 40.1836 53.2818 40.2848 53.4247C40.7803 54.0969 41.4027 54.6655 42.1168 55.0984C43.9972 56.2883 46.0491 56.7281 48.2748 56.6028C52.0752 56.3828 55.3631 54.9709 58.0397 52.303C63.1882 47.1632 64.9674 40.7784 64.0547 33.7493Z" fill="#3F3F3F"/>
<path id="Vector_2" d="M68.8975 3H18.1026C9.76164 3 3 9.76183 3 18.103V68.897C3 77.2382 9.76164 84 18.1026 84H68.8975C77.2384 84 84 77.2382 84 68.897V18.103C84 9.76183 77.2384 3 68.8975 3Z" stroke="#3F3F3F" stroke-width="5" stroke-linecap="round" stroke-linejoin="round"/>
</g>
</svg>
