<svg width="87" height="87" viewBox="0 0 87 87" fill="none" xmlns="http://www.w3.org/2000/svg">
<g id="OBJECTS">
<path id="Vector" d="M18.6045 59.1934C24.0799 59.674 28.8777 58.3698 33.3156 55.1959C32.3543 54.9524 31.5392 54.7873 30.7494 54.5374C27.7852 53.5995 25.7123 51.6346 24.425 48.8207C24.0269 47.9547 24.1137 47.8848 25.0602 47.8996C26.0066 47.9145 27.0314 48.0584 28.1917 47.6202C26.5501 47.183 25.0393 46.3532 23.7898 45.2022C21.8588 43.4003 20.7155 41.1793 20.5122 38.5326C20.4317 37.4613 20.5672 37.3851 21.5222 37.8212C22.483 38.2815 23.5332 38.525 24.5986 38.5348C23.8681 37.6878 23.0763 37.0865 22.5109 36.2671C20.2729 33.0192 19.8939 29.5806 21.4375 25.9473C21.8609 24.9797 22.0134 24.9437 22.7078 25.7356C26.0487 29.5552 30.3261 32.4397 35.1196 34.1053C37.263 34.8512 39.4866 35.343 41.7446 35.5705C42.907 35.6891 43.015 35.5705 42.8732 34.4272C42.3946 30.3725 44.6898 26.1315 48.4057 24.1984C52.1216 22.2653 56.9025 22.8095 59.9324 25.581C60.1718 25.8292 60.4773 26.0037 60.8126 26.084C61.148 26.1643 61.4994 26.147 61.8252 26.0341C63.4045 25.615 64.9331 25.0243 66.3838 24.2725C66.6061 24.154 66.8073 23.9105 67.2307 24.0608C66.5363 26.231 65.1642 27.8847 63.4196 29.3117C65.1273 29.0775 66.798 28.6257 68.391 27.9672C68.427 28.5368 68.0904 28.8269 67.8532 29.1339C66.8575 30.4695 65.6802 31.6597 64.3554 32.6698C63.7202 33.1335 63.5085 33.6649 63.5233 34.4335C63.6271 41.2555 61.4399 47.3386 57.3598 52.7292C52.5154 59.1362 46.0068 62.7505 38.0541 63.716C31.6406 64.548 25.1321 63.2308 19.5467 59.9705C19.335 59.8498 19.1359 59.7185 18.9369 59.5809C18.8156 59.4611 18.7044 59.3315 18.6045 59.1934Z" fill="#3F3F3F"/>
<path id="Vector_2" d="M68.8972 3H18.1028C9.76176 3 3 9.76176 3 18.1028V68.8972C3 77.2382 9.76176 84 18.1028 84H68.8972C77.2382 84 84 77.2382 84 68.8972V18.1028C84 9.76176 77.2382 3 68.8972 3Z" stroke="#3F3F3F" stroke-width="5" stroke-linecap="round" stroke-linejoin="round"/>
</g>
</svg>
